<?xml version="1.0" encoding="UTF-8"?>
<svg id="Layer_1" xmlns="http://www.w3.org/2000/svg" viewBox="0 0 352.29 498.2">
  <defs>
    <style>
      .cls-1 {
        fill: #d6ff62;
      }
    </style>
  </defs>
  <path class="cls-1" d="M177.27,498.2h-79.86l41.52-166.07H53.14C23.78,332.12-.01,308.31,0,278.95c0-5.19.76-10.35,2.26-15.32L81.99,0h196.52l-62.27,166.07h83.51c29.04.02,52.57,23.57,52.55,52.61,0,10.32-3.05,20.41-8.75,29.01l-166.27,250.51ZM150.6,456.68h4.4l153.94-231.95c3.37-5.08,1.98-11.94-3.1-15.31-1.81-1.2-3.93-1.84-6.1-1.84h-143.42l62.27-166.07h-105.8l-70.81,234.07c-1.87,6.15,1.61,12.66,7.76,14.53,1.1.33,2.24.5,3.39.5h139.08l-41.62,166.07Z"/>
</svg>