<?xml version="1.0" encoding="UTF-8"?>
<svg id="Layer_1" xmlns="http://www.w3.org/2000/svg" viewBox="0 0 454.7 454.7">
  <defs>
    <style>
      .cls-1 {
        fill: #d6ff62;
      }
    </style>
  </defs>
  <path class="cls-1" d="M188.5,1.17l-17.7,93.69v20.69c0,20.09-17.59,36.4-37.7,36.4s-37.7-16.3-37.7-36.41v-20.68L151.88,1.17s36.62,0,36.62,0ZM130.98,1.17l-54.41,93.69v20.69c0,20.09-17.59,36.4-37.7,36.4S1.17,135.65,1.17,115.54v-20.68L93.04,1.17s37.94,0,37.94,0ZM453.52,115.54c0,20.11-17.6,36.41-37.7,36.41s-37.7-17.59-37.7-37.7v-20.69L323.72,1.17h37.96l91.85,93.69s0,20.68,0,20.68ZM265.04,93.53v20.69c0,20.09-17.6,37.73-37.7,37.73s-37.7-17.59-37.7-37.7v-20.69L209.39,1.17h35.91s19.75,92.35,19.75,92.35ZM302.81,1.17l56.43,94.28v20.69c0,20.11-17.57,35.81-37.66,35.81s-37.7-17.59-37.7-37.7v-20.69L266.19,1.17h36.62ZM396.98,227.35v131.93H57.72v-131.93h339.26ZM434.67,189.65H20.02v263.87h414.65V189.65ZM114.45,297.39h14.29c-1.47,16.49-11.03,24.2-24.22,24.2-16.42,0-26.67-12.12-26.67-28.03s10.25-28.52,26.67-28.52c12.5,0,22.17,7.01,23.84,21.79h-14.31c-.92-6.24-4.98-8.88-9.54-8.88-8.56,0-11.99,7.11-11.99,15.61s3.64,15.19,11.99,15.19c6.95,0,9.12-4.86,9.93-11.37ZM149.07,266.25h-14.68v54.19h39.37v-12.91h-24.69s0-41.28,0-41.28ZM202.69,265.04c-16.44,0-26.67,12.33-26.67,28.52s10.23,28.03,26.67,28.03,26.69-12.04,26.69-28.03-10.31-28.52-26.69-28.52ZM202.69,308.75c-8.35,0-11.99-6.88-11.99-15.19s3.43-15.61,11.99-15.61,11.99,7.11,11.99,15.61c.02,8.27-3.6,15.19-11.99,15.19ZM271.28,290.81c-5.99-3.94-16.27-4.64-21.47-7.07-1.47-.68-1.79-1.11-1.79-2.51,0-2.21,1.85-3.37,3.54-3.73,2.04-.41,4.09-.26,5.77.08,3.26.68,4.58,2.49,4.81,5.69l.11,1.66h14.21v-1.79c0-9.14-5.67-15.13-14-17.15-4.81-1.17-10.12-1.36-15.3.04-7.71,2.07-13.46,7.9-13.46,16.11,0,4.92,1.96,8.75,5.45,11.4,7.35,5.64,19.92,5.37,23.94,9.29,1.07,1.06.96,3.13.19,4.11-1.09,1.36-2.86,2-4.54,2.26-2.54.38-4.69.28-6.75-.26-3.58-.9-5.62-3.24-5.62-7.11v-1.77h-14.31l-.04,1.75c-.23,13.1,10.35,19.77,23.31,19.77,12.27,0,22.82-5.67,22.82-17.96,0-5.71-2.54-9.97-6.88-12.82ZM297.69,307.53v-8.86h24.54v-12.19h-24.54v-7.31h26.73v-12.91h-41.41v54.19h42.01v-12.91s-27.33,0-27.33,0ZM353.38,266.21h-23.64v54.21h23.64c14.95,0,24.75-10.08,24.75-27.39s-10.31-26.82-24.75-26.82ZM344.43,279.14h6.18c9.59,0,12.84,5.28,12.84,14.97,0,7.65-3.19,13.4-10.84,13.4h-8.18s0-28.37,0-28.37Z"/>
</svg>