<?xml version="1.0" encoding="UTF-8"?>
<svg id="Layer_1" xmlns="http://www.w3.org/2000/svg" viewBox="0 0 454.7 454.7">
  <defs>
    <style>
      .cls-1 {
        fill: #1d1d1d;
      }
    </style>
  </defs>
  <path class="cls-1" d="M188.3,0l-17.79,94.18v20.8c0,20.2-17.68,36.58-37.89,36.58s-37.89-16.39-37.89-36.6v-20.78L151.49,0s36.81,0,36.81,0ZM130.48,0l-54.7,94.18v20.8c0,20.2-17.68,36.58-37.89,36.58S0,135.18,0,114.96v-20.78L92.34,0s38.14,0,38.14,0ZM454.7,114.96c0,20.22-17.7,36.6-37.89,36.6s-37.89-17.68-37.89-37.89v-20.8L324.22,0h38.16l92.32,94.18s0,20.78,0,20.78ZM265.24,92.83v20.8c0,20.2-17.7,37.93-37.89,37.93s-37.89-17.68-37.89-37.89v-20.8L209.29,0h36.09s19.86,92.83,19.86,92.83ZM303.21,0l56.72,94.77v20.8c0,20.22-17.66,36-37.85,36s-37.89-17.68-37.89-37.89v-20.8L266.39,0h36.81ZM397.86,227.35v132.62H56.84v-132.62h341.02ZM435.75,189.46H18.95v265.24h416.8V189.46ZM152.46,265.24c-16.5,0-26.81,12.39-26.81,28.66.02,15.93,10.27,28.17,26.81,28.17s26.83-12.03,26.83-28.17-10.14-28.66-26.83-28.66ZM152.46,309.17c-8.45,0-12.05-7.01-12.05-15.27s3.45-15.69,12.05-15.69,12.07,7.12,12.07,15.69-3.64,15.27-12.07,15.27ZM209.88,266.43h-24.76v54.49h14.76v-18.24h9.98c12.47,0,19.38-7.6,19.38-18.11s-6.9-18.13-19.36-18.13ZM199.9,278.71h6.92c5.1,0,8.07,1.1,8.07,5.85s-3.16,5.85-8.07,5.85h-6.92v-11.71ZM249.23,307.94h27.45v12.98h-42.21v-54.49h41.64v13h-26.88v7.33h24.69v12.28h-24.69s0,8.9,0,8.9ZM329.03,266.43v54.49h-13.96l-18.55-29.86v29.86h-14.06v-54.49h13.91l18.59,29.95v-29.95s14.08,0,14.08,0Z"/>
</svg>