<?xml version="1.0" encoding="UTF-8"?>
<svg id="Layer_1" xmlns="http://www.w3.org/2000/svg" viewBox="0 0 492.91 492.91">
  <defs>
    <style>
      .cls-1 {
        fill: #d6ff62;
        fill-rule: evenodd;
      }
    </style>
  </defs>
  <path class="cls-1" d="M313.12,349.15c-19.04,76.01-52.31,123.23-66.67,143.77-14.36-20.54-47.65-67.73-66.67-143.77h133.33ZM470.53,349.15c-32,69.64-95.5,121.85-172.23,138.28,27.01-42.47,46.05-89.59,57.03-138.28h115.2ZM22.39,349.15h115.2c11.07,49,30.19,96.08,57.03,138.28-76.73-16.43-140.23-68.64-172.23-138.28ZM321.21,308.07h-149.52c-5.96-40.77-5.96-82.44,0-123.23h149.54c5.91,40.79,5.91,82.46-.02,123.23ZM130.23,308.07H7.78c-5.09-19.68-7.78-40.34-7.78-61.61s2.69-41.92,7.78-61.61h122.45c-5.4,40.83-5.4,82.4,0,123.23ZM485.13,308.07h-122.47c5.44-40.83,5.44-82.4.02-123.23h122.45c5.07,19.7,7.78,40.34,7.78,61.61s-2.71,41.94-7.78,61.61ZM313.12,143.77h-133.33C198.79,67.73,232.08,20.54,246.46,0c24.52,35.08,50.19,78.02,66.67,143.77ZM137.56,143.75H22.37C54.38,74.12,117.89,21.91,194.62,5.46c-25.41,39.84-45.47,87.02-57.05,138.28ZM470.53,143.75h-115.2c-11.44-50.56-31.07-97.56-57.05-138.28,76.73,16.45,140.25,68.66,172.25,138.28Z"/>
</svg>